<?xml version="1.0" encoding="UTF-8" standalone="no"?>
<!-- Created with Inkscape (http://www.inkscape.org/) -->

<svg
   xmlns:dc="http://purl.org/dc/elements/1.1/"
   xmlns:cc="http://creativecommons.org/ns#"
   xmlns:rdf="http://www.w3.org/1999/02/22-rdf-syntax-ns#"
   xmlns:svg="http://www.w3.org/2000/svg"
   xmlns="http://www.w3.org/2000/svg"
   xmlns:sodipodi="http://sodipodi.sourceforge.net/DTD/sodipodi-0.dtd"
   xmlns:inkscape="http://www.inkscape.org/namespaces/inkscape"
   width="33.866665mm"
   height="33.866665mm"
   viewBox="0 0 33.866664 33.866664"
   version="1.1"
   id="svg8"
   inkscape:version="0.92+devel (unknown)"
   sodipodi:docname="add.svg">
  <defs
     id="defs2" />
  <sodipodi:namedview
     id="base"
     pagecolor="#ffffff"
     bordercolor="#666666"
     borderopacity="1.0"
     inkscape:pageopacity="0.0"
     inkscape:pageshadow="2"
     inkscape:zoom="1.979899"
     inkscape:cx="41.898623"
     inkscape:cy="108.89968"
     inkscape:document-units="mm"
     inkscape:current-layer="layer1"
     inkscape:document-rotation="0"
     showgrid="false"
     inkscape:window-width="1853"
     inkscape:window-height="1016"
     inkscape:window-x="67"
     inkscape:window-y="27"
     inkscape:window-maximized="1" />
  <metadata
     id="metadata5">
    <rdf:RDF>
      <cc:Work
         rdf:about="">
        <dc:format>image/svg+xml</dc:format>
        <dc:type
           rdf:resource="http://purl.org/dc/dcmitype/StillImage" />
        <dc:title />
      </cc:Work>
    </rdf:RDF>
  </metadata>
  <g
     inkscape:label="Layer 1"
     inkscape:groupmode="layer"
     id="layer1"
     transform="translate(-103.96375,-103.33542)">
    <path
       style="fill:#000000;stroke:#000000;stroke-width:1.18837869;stroke-linecap:round;stroke-linejoin:round;stroke-miterlimit:4;stroke-dasharray:none"
       d="M 58.294922 24.533203 C 57.50107 24.533203 56.861328 25.172907 56.861328 25.966797 L 56.861328 56.861328 L 25.966797 56.861328 C 25.172945 56.861328 24.533203 57.50107 24.533203 58.294922 L 24.533203 69.705078 C 24.533203 70.49893 25.172945 71.138672 25.966797 71.138672 L 56.861328 71.138672 L 56.861328 102.0332 C 56.861328 102.82706 57.50107 103.4668 58.294922 103.4668 L 69.705078 103.4668 C 70.49893 103.4668 71.138672 102.82706 71.138672 102.0332 L 71.138672 71.138672 L 102.0332 71.138672 C 102.82706 71.138672 103.4668 70.49893 103.4668 69.705078 L 103.4668 58.294922 C 103.4668 57.50107 102.82706 56.861328 102.0332 56.861328 L 71.138672 56.861328 L 71.138672 25.966797 C 71.138672 25.172907 70.49893 24.533203 69.705078 24.533203 L 58.294922 24.533203 z "
       transform="matrix(0.26458333,0,0,0.26458333,103.96375,103.33542)"
       id="rect932" />
  </g>
</svg>
