<?xml version="1.0" encoding="UTF-8" standalone="no"?>
<!-- Created with Inkscape (http://www.inkscape.org/) -->

<svg
   xmlns:dc="http://purl.org/dc/elements/1.1/"
   xmlns:cc="http://creativecommons.org/ns#"
   xmlns:rdf="http://www.w3.org/1999/02/22-rdf-syntax-ns#"
   xmlns:svg="http://www.w3.org/2000/svg"
   xmlns="http://www.w3.org/2000/svg"
   xmlns:sodipodi="http://sodipodi.sourceforge.net/DTD/sodipodi-0.dtd"
   xmlns:inkscape="http://www.inkscape.org/namespaces/inkscape"
   width="33.866665mm"
   height="33.866665mm"
   viewBox="0 0 33.866664 33.866664"
   version="1.1"
   id="svg8"
   inkscape:version="0.92+devel (unknown)"
   sodipodi:docname="close.svg">
  <defs
     id="defs2" />
  <sodipodi:namedview
     id="base"
     pagecolor="#ffffff"
     bordercolor="#666666"
     borderopacity="1.0"
     inkscape:pageopacity="0.0"
     inkscape:pageshadow="2"
     inkscape:zoom="1.979899"
     inkscape:cx="41.898623"
     inkscape:cy="108.89968"
     inkscape:document-units="mm"
     inkscape:current-layer="layer1"
     inkscape:document-rotation="0"
     showgrid="false"
     inkscape:window-width="1853"
     inkscape:window-height="1016"
     inkscape:window-x="67"
     inkscape:window-y="27"
     inkscape:window-maximized="1" />
  <metadata
     id="metadata5">
    <rdf:RDF>
      <cc:Work
         rdf:about="">
        <dc:format>image/svg+xml</dc:format>
        <dc:type
           rdf:resource="http://purl.org/dc/dcmitype/StillImage" />
        <dc:title />
      </cc:Work>
    </rdf:RDF>
  </metadata>
  <g
     inkscape:label="Layer 1"
     inkscape:groupmode="layer"
     id="layer1"
     transform="translate(-103.96375,-103.33542)">
    <path
       style="fill:#000000;stroke:#000000;stroke-width:1.18837869;stroke-linecap:round;stroke-linejoin:round;stroke-miterlimit:4;stroke-dasharray:none"
       d="M 41.140625 31.638672 C 40.774338 31.638675 40.407623 31.777924 40.126953 32.058594 L 32.058594 40.126953 C 31.497254 40.688293 31.497256 41.592959 32.058594 42.154297 L 53.904297 64 L 32.058594 85.845703 C 31.497254 86.407043 31.497229 87.311682 32.058594 87.873047 L 40.126953 95.941406 C 40.688291 96.502744 41.592957 96.502746 42.154297 95.941406 L 64 74.095703 L 85.845703 95.941406 C 86.407041 96.502744 87.311707 96.502746 87.873047 95.941406 L 95.941406 87.873047 C 96.502746 87.311707 96.502744 86.407041 95.941406 85.845703 L 74.095703 64 L 95.941406 42.154297 C 96.502747 41.592956 96.502744 40.688291 95.941406 40.126953 L 87.873047 32.058594 C 87.311682 31.497229 86.407044 31.497253 85.845703 32.058594 L 64 53.904297 L 42.154297 32.058594 C 41.873628 31.777925 41.506912 31.638669 41.140625 31.638672 z "
       transform="matrix(0.26458333,0,0,0.26458333,103.96375,103.33542)"
       id="rect932" />
  </g>
</svg>
