<?xml version="1.0" encoding="UTF-8" standalone="no"?>
<!-- Created with Inkscape (http://www.inkscape.org/) -->

<svg
   xmlns:dc="http://purl.org/dc/elements/1.1/"
   xmlns:cc="http://creativecommons.org/ns#"
   xmlns:rdf="http://www.w3.org/1999/02/22-rdf-syntax-ns#"
   xmlns:svg="http://www.w3.org/2000/svg"
   xmlns="http://www.w3.org/2000/svg"
   xmlns:sodipodi="http://sodipodi.sourceforge.net/DTD/sodipodi-0.dtd"
   xmlns:inkscape="http://www.inkscape.org/namespaces/inkscape"
   width="33.866665mm"
   height="33.866665mm"
   viewBox="0 0 33.866664 33.866664"
   version="1.1"
   id="svg8"
   inkscape:version="0.92+devel (unknown)"
   sodipodi:docname="echo.svg">
  <defs
     id="defs2" />
  <sodipodi:namedview
     id="base"
     pagecolor="#ffffff"
     bordercolor="#666666"
     borderopacity="1.0"
     inkscape:pageopacity="0.0"
     inkscape:pageshadow="2"
     inkscape:zoom="3.959798"
     inkscape:cx="57.954408"
     inkscape:cy="43.551564"
     inkscape:document-units="mm"
     inkscape:current-layer="layer1"
     inkscape:document-rotation="0"
     showgrid="false"
     inkscape:window-width="1853"
     inkscape:window-height="1016"
     inkscape:window-x="67"
     inkscape:window-y="27"
     inkscape:window-maximized="1" />
  <metadata
     id="metadata5">
    <rdf:RDF>
      <cc:Work
         rdf:about="">
        <dc:format>image/svg+xml</dc:format>
        <dc:type
           rdf:resource="http://purl.org/dc/dcmitype/StillImage" />
        <dc:title />
      </cc:Work>
    </rdf:RDF>
  </metadata>
  <g
     inkscape:label="Layer 1"
     inkscape:groupmode="layer"
     id="layer1"
     transform="translate(-103.96375,-103.33542)">
    <path
       style="color:#000000;font-style:normal;font-variant:normal;font-weight:normal;font-stretch:normal;font-size:medium;line-height:normal;font-family:sans-serif;font-variant-ligatures:normal;font-variant-position:normal;font-variant-caps:normal;font-variant-numeric:normal;font-variant-alternates:normal;font-variant-east-asian:normal;font-feature-settings:normal;font-variation-settings:normal;text-indent:0;text-align:start;text-decoration:none;text-decoration-line:none;text-decoration-style:solid;text-decoration-color:#000000;letter-spacing:normal;word-spacing:normal;text-transform:none;writing-mode:lr-tb;direction:ltr;text-orientation:mixed;dominant-baseline:auto;baseline-shift:baseline;text-anchor:start;white-space:normal;shape-padding:0;shape-margin:0;inline-size:0;clip-rule:nonzero;display:inline;overflow:visible;visibility:visible;opacity:1;isolation:auto;mix-blend-mode:normal;color-interpolation:sRGB;color-interpolation-filters:linearRGB;solid-color:#000000;solid-opacity:1;vector-effect:none;fill:#000000;fill-opacity:1;fill-rule:nonzero;stroke:none;stroke-width:7.69171381;stroke-linecap:butt;stroke-linejoin:round;stroke-miterlimit:4;stroke-dasharray:none;stroke-dashoffset:0;stroke-opacity:1;color-rendering:auto;image-rendering:auto;shape-rendering:auto;text-rendering:auto;enable-background:accumulate"
       d="M 36.714844 29.048828 A 3.8462415 3.8462415 0 0 0 32.869141 32.896484 L 32.869141 75.230469 L 20.039062 75.230469 A 3.8458568 3.8458568 0 0 0 16.193359 79.076172 A 3.8458568 3.8458568 0 0 0 20.039062 82.921875 L 68.931641 82.921875 A 17.305078 17.305078 0 0 1 68.351562 78.517578 A 17.305078 17.305078 0 0 1 68.673828 75.230469 L 40.560547 75.230469 L 40.560547 36.742188 L 82.925781 36.742188 L 82.925781 61.439453 A 17.305078 17.305078 0 0 1 85.65625 61.212891 A 17.305078 17.305078 0 0 1 90.617188 61.947266 L 90.617188 32.896484 A 3.8462415 3.8462415 0 0 0 86.771484 29.048828 L 36.714844 29.048828 z M 102.63086 75.230469 A 17.305078 17.305078 0 0 1 102.96094 78.517578 A 17.305078 17.305078 0 0 1 102.37109 82.921875 L 115.17578 82.921875 A 3.8458568 3.8458568 0 0 0 119.02148 79.076172 A 3.8458568 3.8458568 0 0 0 115.17578 75.230469 L 102.63086 75.230469 z "
       transform="matrix(0.26458333,0,0,0.26458333,103.96375,103.33542)"
       id="path4012" />
    <circle
       style="fill:none;stroke:#000000;stroke-width:1.6535182;stroke-linecap:round;stroke-linejoin:round;stroke-miterlimit:4;stroke-dasharray:none"
       id="path817"
       cx="126.62704"
       cy="124.10992"
       r="4.5786352" />
    <g
       aria-label="+"
       transform="matrix(0.204438,0,0,0.20654774,105.8083,-9.3513474)"
       style="font-style:normal;font-weight:normal;font-size:40px;line-height:1.25;font-family:sans-serif;letter-spacing:0px;word-spacing:0px;fill:#000000;fill-opacity:1;stroke:none"
       id="flowRoot819">
      <path
         d="m 99.498047,648.58291 h -7.265625 v -5.23437 h 7.265625 v -7.16797 h 5.253903 v 7.16797 h 7.26563 v 5.23437 h -7.26563 v 7.05078 h -5.253903 z"
         style="font-style:normal;font-variant:normal;font-weight:800;font-stretch:normal;font-family:'Open Sans';-inkscape-font-specification:'Open Sans Ultra-Bold'"
         id="path4004" />
    </g>
    <path
       style="fill:none;stroke:#000000;stroke-width:2.03500009;stroke-linecap:round;stroke-linejoin:round;stroke-miterlimit:4;stroke-dasharray:none;stroke-opacity:1"
       d="m 110.34865,120.84004 -3.1387,3.41724 3.22876,3.31221"
       id="path829"
       inkscape:connector-curvature="0"
       sodipodi:nodetypes="ccc" />
  </g>
</svg>
