<?xml version="1.0" encoding="UTF-8" standalone="no"?>
<!-- Created with Inkscape (http://www.inkscape.org/) -->

<svg
   xmlns:dc="http://purl.org/dc/elements/1.1/"
   xmlns:cc="http://creativecommons.org/ns#"
   xmlns:rdf="http://www.w3.org/1999/02/22-rdf-syntax-ns#"
   xmlns:svg="http://www.w3.org/2000/svg"
   xmlns="http://www.w3.org/2000/svg"
   xmlns:sodipodi="http://sodipodi.sourceforge.net/DTD/sodipodi-0.dtd"
   xmlns:inkscape="http://www.inkscape.org/namespaces/inkscape"
   width="33.866665mm"
   height="33.866665mm"
   viewBox="0 0 33.866664 33.866664"
   version="1.1"
   id="svg8"
   inkscape:version="0.92+devel (unknown)"
   sodipodi:docname="input.svg">
  <defs
     id="defs2" />
  <sodipodi:namedview
     id="base"
     pagecolor="#ffffff"
     bordercolor="#666666"
     borderopacity="1.0"
     inkscape:pageopacity="0.0"
     inkscape:pageshadow="2"
     inkscape:zoom="1.4"
     inkscape:cx="-77.432692"
     inkscape:cy="-55.1748"
     inkscape:document-units="mm"
     inkscape:current-layer="layer1"
     inkscape:document-rotation="0"
     showgrid="false"
     inkscape:window-width="1853"
     inkscape:window-height="1016"
     inkscape:window-x="67"
     inkscape:window-y="27"
     inkscape:window-maximized="1" />
  <metadata
     id="metadata5">
    <rdf:RDF>
      <cc:Work
         rdf:about="">
        <dc:format>image/svg+xml</dc:format>
        <dc:type
           rdf:resource="http://purl.org/dc/dcmitype/StillImage" />
        <dc:title />
      </cc:Work>
    </rdf:RDF>
  </metadata>
  <g
     inkscape:label="Layer 1"
     inkscape:groupmode="layer"
     id="layer1"
     transform="translate(-103.96375,-103.33542)">
    <path
       style="color:#000000;font-style:normal;font-variant:normal;font-weight:normal;font-stretch:normal;font-size:medium;line-height:normal;font-family:sans-serif;font-variant-ligatures:normal;font-variant-position:normal;font-variant-caps:normal;font-variant-numeric:normal;font-variant-alternates:normal;font-variant-east-asian:normal;font-feature-settings:normal;font-variation-settings:normal;text-indent:0;text-align:start;text-decoration:none;text-decoration-line:none;text-decoration-style:solid;text-decoration-color:#000000;letter-spacing:normal;word-spacing:normal;text-transform:none;writing-mode:lr-tb;direction:ltr;text-orientation:mixed;dominant-baseline:auto;baseline-shift:baseline;text-anchor:start;white-space:normal;shape-padding:0;shape-margin:0;inline-size:0;clip-rule:nonzero;display:inline;overflow:visible;visibility:visible;opacity:1;isolation:auto;mix-blend-mode:normal;color-interpolation:sRGB;color-interpolation-filters:linearRGB;solid-color:#000000;solid-opacity:1;vector-effect:none;fill:#000000;fill-opacity:1;fill-rule:nonzero;stroke:none;stroke-width:3.17499995;stroke-linecap:round;stroke-linejoin:round;stroke-miterlimit:4;stroke-dasharray:none;stroke-dashoffset:0;stroke-opacity:1;color-rendering:auto;image-rendering:auto;shape-rendering:auto;text-rendering:auto;enable-background:accumulate"
       d="m 120.8963,108.22582 a 1.5875,1.5875 0 0 0 -1.58595,1.58802 v 6.88847 a 1.5875,1.5875 0 0 0 1.58595,1.58801 1.5875,1.5875 0 0 0 1.58802,-1.58801 v -6.88847 a 1.5875,1.5875 0 0 0 -1.58802,-1.58802 z m 4.72013,3.43493 a 1.5875,1.5875 0 0 0 -1.4118,0.79375 1.5875,1.5875 0 0 0 0.58239,2.16783 c 3.05566,1.76419 4.53625,5.34222 3.62304,8.75037 -0.91321,3.40815 -3.98538,5.76554 -7.51376,5.76554 -3.52837,0 -6.60054,-2.35739 -7.51375,-5.76554 -0.91321,-3.40815 0.56944,-6.98618 3.6251,-8.75037 a 1.5875,1.5875 0 0 0 0.57981,-2.16783 1.5875,1.5875 0 0 0 -2.16782,-0.58187 c -3.21516,1.85627 -5.19878,5.16895 -5.44928,8.7266 -0.0835,1.18589 0.0254,2.40029 0.34571,3.59564 1.28117,4.78138 5.63018,8.11683 10.58023,8.11682 4.95006,1e-5 9.30062,-3.33544 10.58179,-8.11682 1.28117,-4.78139 -0.81825,-9.84721 -5.10512,-12.32224 a 1.5875,1.5875 0 0 0 -0.75654,-0.21188 z"
       id="path1083"
       inkscape:connector-curvature="0" />
  </g>
</svg>
