<?xml version="1.0" encoding="UTF-8" standalone="no"?>
<!-- Created with Inkscape (http://www.inkscape.org/) -->

<svg
   xmlns:osb="http://www.openswatchbook.org/uri/2009/osb"
   xmlns:dc="http://purl.org/dc/elements/1.1/"
   xmlns:cc="http://creativecommons.org/ns#"
   xmlns:rdf="http://www.w3.org/1999/02/22-rdf-syntax-ns#"
   xmlns:svg="http://www.w3.org/2000/svg"
   xmlns="http://www.w3.org/2000/svg"
   xmlns:sodipodi="http://sodipodi.sourceforge.net/DTD/sodipodi-0.dtd"
   xmlns:inkscape="http://www.inkscape.org/namespaces/inkscape"
   width="33.866665mm"
   height="33.866665mm"
   viewBox="0 0 33.866664 33.866664"
   version="1.1"
   id="svg8"
   inkscape:version="0.92+devel (unknown)"
   sodipodi:docname="synth.svg">
  <defs
     id="defs2">
    <inkscape:perspective
       sodipodi:type="inkscape:persp3d"
       inkscape:vp_x="0 : 16.933332 : 1"
       inkscape:vp_y="0 : 1000 : 0"
       inkscape:vp_z="33.866664 : 16.933332 : 1"
       inkscape:persp3d-origin="16.933332 : 11.288888 : 1"
       id="perspective4578" />
    <linearGradient
       id="linearGradient4532"
       osb:paint="solid">
      <stop
         style="stop-color:#000000;stop-opacity:0;"
         offset="0"
         id="stop4530" />
    </linearGradient>
  </defs>
  <sodipodi:namedview
     id="base"
     pagecolor="#ffffff"
     bordercolor="#666666"
     borderopacity="1.0"
     inkscape:pageopacity="0.0"
     inkscape:pageshadow="2"
     inkscape:zoom="5.6"
     inkscape:cx="47.163253"
     inkscape:cy="55.944852"
     inkscape:document-units="mm"
     inkscape:current-layer="layer4"
     inkscape:document-rotation="0"
     showgrid="false"
     inkscape:window-width="1920"
     inkscape:window-height="1013"
     inkscape:window-x="0"
     inkscape:window-y="30"
     inkscape:window-maximized="1"
     inkscape:measure-start="15.1786,54.8214"
     inkscape:measure-end="114.589,54.5842"
     inkscape:snap-nodes="false"
     inkscape:snap-bbox="false"
     inkscape:bbox-nodes="false"
     inkscape:object-nodes="false"
     inkscape:snap-bbox-edge-midpoints="false"
     inkscape:snap-others="false" />
  <metadata
     id="metadata5">
    <rdf:RDF>
      <cc:Work
         rdf:about="">
        <dc:format>image/svg+xml</dc:format>
        <dc:type
           rdf:resource="http://purl.org/dc/dcmitype/StillImage" />
        <dc:title />
      </cc:Work>
    </rdf:RDF>
  </metadata>
  <g
     inkscape:groupmode="layer"
     id="layer4"
     inkscape:label="black keys">
    <path
       style="color:#000000;font-style:normal;font-variant:normal;font-weight:normal;font-stretch:normal;font-size:medium;line-height:normal;font-family:sans-serif;font-variant-ligatures:normal;font-variant-position:normal;font-variant-caps:normal;font-variant-numeric:normal;font-variant-alternates:normal;font-variant-east-asian:normal;font-feature-settings:normal;font-variation-settings:normal;text-indent:0;text-align:start;text-decoration:none;text-decoration-line:none;text-decoration-style:solid;text-decoration-color:#000000;letter-spacing:normal;word-spacing:normal;text-transform:none;writing-mode:lr-tb;direction:ltr;text-orientation:mixed;dominant-baseline:auto;baseline-shift:baseline;text-anchor:start;white-space:normal;shape-padding:0;shape-margin:0;inline-size:0;clip-rule:nonzero;display:inline;overflow:visible;visibility:visible;opacity:1;isolation:auto;mix-blend-mode:normal;color-interpolation:sRGB;color-interpolation-filters:linearRGB;solid-color:#000000;solid-opacity:1;vector-effect:none;fill:#000000;fill-opacity:1;fill-rule:nonzero;stroke:none;stroke-width:8.33458042;stroke-linecap:round;stroke-linejoin:round;stroke-miterlimit:4;stroke-dasharray:none;stroke-dashoffset:0;stroke-opacity:1;color-rendering:auto;image-rendering:auto;shape-rendering:auto;text-rendering:auto;enable-background:accumulate"
       d="M 12.623047 38.386719 A 4.167707 4.167707 0 0 0 8.453125 42.556641 L 8.453125 87.076172 A 4.167707 4.167707 0 0 0 12.623047 91.248047 L 118.84766 91.248047 A 4.167707 4.167707 0 0 0 123.01172 87.076172 L 123.01172 42.556641 A 4.167707 4.167707 0 0 0 118.84766 38.386719 L 12.623047 38.386719 z M 16.787109 46.720703 L 20.994141 46.720703 L 20.994141 66.710938 L 23.681641 66.710938 L 23.681641 82.914062 L 16.787109 82.914062 L 16.787109 46.720703 z M 28.996094 46.720703 L 34.998047 46.720703 L 34.998047 66.710938 L 37.677734 66.710938 L 37.677734 82.914062 L 26.316406 82.914062 L 26.316406 66.710938 L 28.996094 66.710938 L 28.996094 46.720703 z M 43 46.720703 L 51.679688 46.720703 L 51.679688 82.914062 L 40.3125 82.914062 L 40.3125 66.710938 L 43 66.710938 L 43 46.720703 z M 54.316406 46.720703 L 60.996094 46.720703 L 60.996094 66.710938 L 63.675781 66.710938 L 63.675781 82.914062 L 54.316406 82.914062 L 54.316406 46.720703 z M 68.998047 46.720703 L 75 46.720703 L 75 66.710938 L 77.679688 66.710938 L 77.679688 82.914062 L 66.318359 82.914062 L 66.318359 66.710938 L 68.998047 66.710938 L 68.998047 46.720703 z M 82.994141 46.720703 L 88.996094 46.720703 L 88.996094 66.710938 L 91.675781 66.710938 L 91.675781 82.914062 L 80.314453 82.914062 L 80.314453 66.710938 L 82.994141 66.710938 L 82.994141 46.720703 z M 96.998047 46.720703 L 103.67773 46.720703 L 103.67773 82.914062 L 94.318359 82.914062 L 94.318359 66.710938 L 96.998047 66.710938 L 96.998047 46.720703 z M 106.31445 46.720703 L 112.99414 46.720703 L 112.99414 66.710938 L 114.67773 66.710938 L 114.67773 82.914062 L 106.31445 82.914062 L 106.31445 46.720703 z "
       transform="scale(0.26458333)"
       id="path1503" />
  </g>
</svg>
