<?xml version="1.0" encoding="UTF-8" standalone="no"?>
<!-- Created with Inkscape (http://www.inkscape.org/) -->

<svg
   xmlns:dc="http://purl.org/dc/elements/1.1/"
   xmlns:cc="http://creativecommons.org/ns#"
   xmlns:rdf="http://www.w3.org/1999/02/22-rdf-syntax-ns#"
   xmlns:svg="http://www.w3.org/2000/svg"
   xmlns="http://www.w3.org/2000/svg"
   xmlns:sodipodi="http://sodipodi.sourceforge.net/DTD/sodipodi-0.dtd"
   xmlns:inkscape="http://www.inkscape.org/namespaces/inkscape"
   width="33.866665mm"
   height="33.866665mm"
   viewBox="0 0 33.866664 33.866664"
   version="1.1"
   id="svg8"
   inkscape:version="0.92+devel (unknown)"
   sodipodi:docname="violin.svg">
  <defs
     id="defs2" />
  <sodipodi:namedview
     id="base"
     pagecolor="#ffffff"
     bordercolor="#666666"
     borderopacity="1.0"
     inkscape:pageopacity="0.0"
     inkscape:pageshadow="2"
     inkscape:zoom="3.959798"
     inkscape:cx="49.434916"
     inkscape:cy="82.888286"
     inkscape:document-units="mm"
     inkscape:current-layer="layer1"
     inkscape:document-rotation="0"
     showgrid="false"
     inkscape:window-width="1853"
     inkscape:window-height="1016"
     inkscape:window-x="67"
     inkscape:window-y="27"
     inkscape:window-maximized="1" />
  <metadata
     id="metadata5">
    <rdf:RDF>
      <cc:Work
         rdf:about="">
        <dc:format>image/svg+xml</dc:format>
        <dc:type
           rdf:resource="http://purl.org/dc/dcmitype/StillImage" />
        <dc:title />
      </cc:Work>
    </rdf:RDF>
  </metadata>
  <g
     inkscape:label="Layer 1"
     inkscape:groupmode="layer"
     id="layer1"
     transform="translate(-103.96375,-103.33542)">
    <path
       style="color:#000000;font-style:normal;font-variant:normal;font-weight:normal;font-stretch:normal;font-size:medium;line-height:normal;font-family:sans-serif;font-variant-ligatures:normal;font-variant-position:normal;font-variant-caps:normal;font-variant-numeric:normal;font-variant-alternates:normal;font-variant-east-asian:normal;font-feature-settings:normal;font-variation-settings:normal;text-indent:0;text-align:start;text-decoration:none;text-decoration-line:none;text-decoration-style:solid;text-decoration-color:#000000;letter-spacing:normal;word-spacing:normal;text-transform:none;writing-mode:lr-tb;direction:ltr;text-orientation:mixed;dominant-baseline:auto;baseline-shift:baseline;text-anchor:start;white-space:normal;shape-padding:0;shape-margin:0;inline-size:0;clip-rule:nonzero;display:inline;overflow:visible;visibility:visible;opacity:1;isolation:auto;mix-blend-mode:normal;color-interpolation:sRGB;color-interpolation-filters:linearRGB;solid-color:#000000;solid-opacity:1;vector-effect:none;fill:#000000;fill-opacity:1;fill-rule:nonzero;stroke:none;stroke-width:5.23664999;stroke-linecap:round;stroke-linejoin:round;stroke-miterlimit:4;stroke-dasharray:none;stroke-dashoffset:0;stroke-opacity:1;color-rendering:auto;image-rendering:auto;shape-rendering:auto;text-rendering:auto;enable-background:accumulate"
       d="M 63.886719 14.072266 A 2.6183251 2.6183251 0 0 0 63.703125 14.080078 L 61.841797 14.21875 A 2.6185869 2.6185869 0 0 0 59.421875 16.832031 C 59.421875 16.832031 59.416789 19.448978 59.416016 20.037109 L 57.058594 20.037109 A 2.5474965 2.5474965 0 0 0 54.511719 22.583984 A 2.5474965 2.5474965 0 0 0 57.058594 25.130859 L 59.40625 25.130859 C 59.405589 25.497098 59.405049 25.643576 59.404297 26.037109 L 57.058594 26.037109 A 2.5474965 2.5474965 0 0 0 54.511719 28.583984 A 2.5474965 2.5474965 0 0 0 57.058594 31.130859 L 59.394531 31.130859 C 59.37351 39.026569 59.337791 48.414869 59.28125 54.384766 C 56.462932 54.203424 53.810214 54.641329 51.847656 56.097656 C 49.085389 58.147445 47.449323 61.226186 46.666016 64.365234 C 45.882709 67.504321 45.904371 70.763193 47.027344 73.5625 C 47.794172 75.474034 49.53302 76.841323 51.566406 77.666016 C 51.378072 79.978595 51.238597 81.958202 51.109375 83.882812 C 50.641923 83.963165 50.129194 83.611767 49.720703 83.800781 C 48.186668 84.510614 47.063548 85.709942 46.140625 87.107422 C 44.294742 89.90242 43.20273 93.690931 43.248047 97.708984 C 43.293363 101.72704 44.592864 106.06413 47.970703 109.26172 C 51.348542 112.45931 56.607003 114.272 63.791016 113.875 A 2.6183251 2.6183251 0 0 0 64.660156 113.67188 A 2.6183251 2.6183251 0 0 0 65.570312 113.875 C 71.908542 114.11833 76.741657 112.1346 79.869141 108.94336 C 82.996662 105.75208 84.375574 101.57668 84.681641 97.65625 C 84.987707 93.735784 84.296876 90.029056 82.769531 87.21875 C 82.005878 85.813597 81.020985 84.558981 79.513672 83.808594 C 79.129823 83.617463 78.647384 83.964299 78.207031 83.882812 C 78.077809 81.958316 77.946146 79.978482 77.757812 77.666016 C 79.790027 76.840945 81.52449 75.473278 82.291016 73.5625 C 83.413989 70.763193 83.435651 67.504321 82.652344 64.365234 C 81.869037 61.226186 80.231018 58.147445 77.46875 56.097656 C 75.507893 54.642614 72.858414 54.205238 70.042969 54.384766 C 69.986446 48.414869 69.950225 39.026569 69.927734 31.130859 L 72.945312 31.130859 A 2.5474965 2.5474965 0 0 0 75.492188 28.583984 A 2.5474965 2.5474965 0 0 0 72.945312 26.037109 L 69.916016 26.037109 C 69.915182 25.643576 69.914801 25.497097 69.914062 25.130859 L 72.945312 25.130859 A 2.5474965 2.5474965 0 0 0 75.492188 22.583984 A 2.5474965 2.5474965 0 0 0 72.945312 20.037109 L 69.904297 20.037109 C 69.903392 19.448977 69.896484 16.832031 69.896484 16.832031 A 2.6185869 2.6185869 0 0 0 67.474609 14.21875 L 65.615234 14.080078 A 2.6183251 2.6183251 0 0 0 65.355469 14.072266 A 2.6183251 2.6183251 0 0 0 64.660156 14.185547 A 2.6183251 2.6183251 0 0 0 63.886719 14.072266 z M 64.662109 19.193359 A 2.6183251 2.6183251 0 0 0 64.669922 19.195312 C 64.669962 19.275299 64.671826 19.929243 64.671875 20.037109 L 64.652344 20.037109 C 64.652401 19.929243 64.654256 19.275299 64.654297 19.195312 A 2.6183251 2.6183251 0 0 0 64.662109 19.193359 z M 64.646484 25.130859 L 64.677734 25.130859 C 64.677936 25.400347 64.679443 25.745417 64.679688 26.037109 L 64.644531 26.037109 C 64.644829 25.745417 64.646235 25.400347 64.646484 25.130859 z M 64.636719 31.130859 L 64.685547 31.130859 C 64.699004 40.162954 64.72613 50.973054 64.810547 57.263672 A 2.6185869 2.6185869 0 0 0 68.279297 59.707031 C 71.138812 58.722653 72.864607 59.19639 74.347656 60.296875 C 75.830667 61.397398 77.012932 63.41675 77.566406 65.634766 C 78.11988 67.852781 77.993984 70.208593 77.433594 71.605469 C 76.873241 73.002344 76.510674 73.380829 75.181641 73.289062 A 2.6185869 2.6185869 0 0 0 72.398438 76.183594 C 73.050027 82.251739 72.60643 81.053353 73.158203 86.591797 A 2.6185869 2.6185869 0 0 0 77.144531 88.554688 C 77.178188 88.533839 77.18031 88.525959 77.197266 88.511719 C 77.307678 88.573258 77.750903 88.940228 78.171875 89.714844 C 79.033003 91.299297 79.695558 94.271607 79.462891 97.251953 C 79.230223 100.23226 78.18192 103.17851 76.126953 105.27539 C 74.071948 107.37227 70.974092 108.84041 65.769531 108.64062 A 2.6183251 2.6183251 0 0 0 64.662109 108.84375 A 2.6183251 2.6183251 0 0 0 63.503906 108.64062 C 57.304876 108.98316 53.716088 107.49396 51.566406 105.45898 C 49.416724 103.42401 48.513804 100.60719 48.480469 97.650391 C 48.447096 94.693553 49.394037 91.686575 50.511719 89.994141 C 51.070597 89.147942 51.664829 88.673666 51.921875 88.554688 C 52.178958 88.435746 51.956102 88.421043 52.171875 88.554688 A 2.6185869 2.6185869 0 0 0 56.158203 86.591797 C 56.710014 81.053353 56.266378 82.251739 56.917969 76.183594 A 2.6185869 2.6185869 0 0 0 54.134766 73.289062 C 52.805733 73.380829 52.445118 73.002344 51.884766 71.605469 C 51.324375 70.208593 51.198479 67.852781 51.751953 65.634766 C 52.305427 63.41675 53.485739 61.397398 54.96875 60.296875 C 56.451799 59.19639 58.177594 58.722653 61.037109 59.707031 A 2.6185869 2.6185869 0 0 0 64.507812 57.263672 C 64.592206 50.973054 64.621526 40.162954 64.636719 31.130859 z "
       transform="matrix(0.26458333,0,0,0.26458333,103.96375,103.33542)"
       id="path6120" />
  </g>
</svg>
